<?xml version="1.0" encoding="utf-8"?>
<!-- Generator: Adobe Illustrator 19.0.0, SVG Export Plug-In . SVG Version: 6.00 Build 0)  -->
<svg version="1.1" id="Layer_1" xmlns="http://www.w3.org/2000/svg" xmlns:xlink="http://www.w3.org/1999/xlink" x="0px" y="0px"
	 viewBox="0 0 140 110" style="enable-background:new 0 0 140 110;" xml:space="preserve">
<style type="text/css">
	.st0{fill:#FFFFFF;}
</style>
<g id="XMLID_38_">
	<g id="XMLID_1_">
		<path id="XMLID_32_" class="st0" d="M144.8,114.4c-54.5,0-109,0-163.4,0c0-40.3,0-80.6,0-120.9c54.5,0,109,0,163.4,0
			C144.8,33.8,144.8,74.1,144.8,114.4z M56.4,85.3c1.1-1.4,2.5-2.6,3.3-4.2c4.2-8.7,6.7-18.5,15.6-24.2c1.8,0.4,3.6,0.9,5.5,1.2
			c2.5,0.3,5,0.5,7.5,0.7c-0.1,3.2,1.5,4.2,4.4,3.5c1.9-0.5,3.7-1.5,5.5-1.5c5.5-0.2,11-0.1,16.5-0.1c0-0.5,0-1.1,0-1.6
			c-8.8-2.1-17.6-2.5-26.5-0.1c-2.3-2.5-7.1-2.8-6.6-7.7c1.7,0.7,3.4,2,5,2c7.9-0.1,15.8-0.1,23.6-0.9c4.1-0.5,9.4,0.2,11.4-5.3
			c-4.5-3.5-4.5-5.8,0.5-8.4c2.5-1.3,5.6-1.7,8.5-2.1c8.2-1.1,10.1-5.3,5.4-12.4c-4,0.4-8,0.7-12,1.1c-6.6,0.5-13.1,1-18.9,1.5
			c-1.6-1.6-2.6-3.1-4-3.7c-0.8-0.4-2.3,0.6-3.4,0.9c0.4,1.2,0.8,2.4,1.2,3.6c0,0,0.1-0.1,0.1-0.1c-10.5,1.6-20.9,3.2-31.4,4.9
			c-0.2-0.8-0.4-1.6-0.7-2.4c1.7-0.5,3.4-1,5-1.6c1-0.4,2-1.1,2.9-1.6c-0.6-0.8-1.2-2.1-1.9-2.2c-3.5-0.6-4.3-3-5-6
			c-0.5-2-2-3.8-3.1-5.7c-0.3,0.2-0.6,0.3-0.8,0.5c1,2.3,2,4.6,2.8,6.5c-3.4,0.4-6.4,0.8-9.4,1.2C56,20.6,54.4,20,53,20.3
			c-10.1,1.9-20.2,3.9-30.4,5.9c1.1-2.1,2.3-4.2,3-5.6c0.1,0.2,0.5,1.3,1,2.4c3.5-1.6,7.7-2.5,10.1-5.1c2.4-2.6,2.9-7,4.7-11.7
			c0.9,4.9,1.6,8.5,2.2,11.7c1.5-2.7,3.2-5.5,5.2-9.1c2,3.7,3.2,5.9,4.5,8.2c0.3-6.1-1.7-11.5-7.3-13.8c-7.3-3.1-15-1.5-21.1,2.9
			c-7.1,5.2-9.3,13-7.5,21.3c2-0.5,3.6-1,5.2-1.4c-5.2,2.9-8.1,7-6.4,13.1c1.7,6.1,3.6,12.2,5.5,18.3c2.7,8.7,5.5,17.4,8.1,26.1
			c0.8,2.6,0.9,5.4,1.4,9.1c4.8-4.9,8.6-9,12.7-12.7c1.5-1.3,4-1.5,6.1-2.2c1.1,1.8,2.3,3.6,3.4,5.3c-1.2,1.8-2.3,3.5-2.9,4.4
			c4.2,6,8.9,12.8,13.9,19.8c1.4-3.4,2.8-7.2,4.5-11.5c-1.6,0.7-2.9,1.3-4,1.7c-3.3-4.1-6.4-7.9-9.4-11.7
			C56,85.8,56.2,85.5,56.4,85.3z M99.8,86.3c0.2,3.6,0.4,7.1,0.5,10.7c0.1,0,0.3,0,0.4,0c0.3-3.2,0.6-6.3,1-9.5
			c0.7-0.1,1.3-0.2,2-0.3c2.6,7,5.1,14,7.7,21.1c0.5-0.1,1-0.1,1.5-0.2c0-1.8,0.3-3.6,0-5.3c-1.3-7.5-3.7-14.9-4-22.5
			c-0.3-6.3-2.8-5.2-6.9-4.1c0.4,2.1,1.2,3.9,0.9,5.5c-0.2,1.4-1.6,2.7-2.5,4c0-4,0-8,0-12c9.1-1.4,10.5-0.4,12.3,8.5
			c1.1,5.2,2,10.5,2.9,15.7c1.5-7-3.8-13.9,1.6-21c1.5-1.9-0.4-6.4-0.9-10.2c-1-0.1-2.4-0.3-3.8-0.5c-4.1-0.4-8.5,1.3-12-2.9
			c-0.7-0.9-5.6-0.2-5.7,0.4c-1.1,4.9-3.1,1.9-4.9,0.9c-0.4-0.2-0.9-0.2-1.5-0.4c0.4,1.5,0.7,2.7,1,4.2c-7.6-1.6-9.8,0.5-9.8,9
			c0.5-1.5,0.9-2.4,1.1-3c2.6,0.4,5.1,0.5,7.4,1.3c1,0.3,2.5,2.4,2.2,3.1c-1.7,4.6-3.6,9.1-5.8,13.4c-2.5,5.1-5.4,10-8.2,15
			c0.5,0.4,1,0.7,1.5,1.1c9-3.3,8.2-14.6,14.9-20c0.8,6.7,1.5,13.2,2.3,19.7c0.8-0.1,1.5-0.2,2.3-0.3c-1.1-10.6-2.1-21.3-3.2-32.1
			c3.1-0.8,4.8,0.3,4.7,4.1C99.1,82,99.6,84.1,99.8,86.3z M1.2,57.6c6.6,0.3,9.4,7.3,6.2,17.2c1.9,0.7,3.8,1.4,5.7,1.9
			c0.8,0.2,1.7,0.4,2.4,0.2c0.4-0.1,0.9-1.4,0.7-1.7c-0.5-0.6-1.3-1.1-2-1.2c-1.3-0.3-2.7-0.3-4.1-0.4c0.6-8.2,1.3-15.8,1.8-23.3
			c1.7,2.6,3.1,4.8,5.1,7.8c0.4-5.1,0.8-8.9,1.1-12.8c-4.6,1.3-9,2.6-13,3.8c1,1.2,2.6,3.2,2.5,3.3C5.3,54.4,3,56.2,1.2,57.6z"/>
		<path id="XMLID_28_" d="M136.1,24c4.7,7.1,2.8,11.3-5.4,12.4c-2.9,0.4-6,0.8-8.5,2.1c-5.1,2.6-5.1,4.9-0.5,8.4
			c-2.1,5.5-7.4,4.8-11.4,5.3c-7.8,0.9-15.7,0.9-23.6,0.9c-1.7,0-3.4-1.3-5-2c0,0,0.1,0.1,0.1,0.1c-0.8-1.6-1.5-3.2-2.4-4.8
			c-0.9-1.6-2.2-4.7-2.7-4.6c-4.1,1-9.2-1.6-12.5,2.9c-0.1-0.5,0-1.2-0.3-1.6c-4.8-5.8-4.7-6.4,0.9-11.8c0.6-0.6,0.7-1.8,0.9-2.8
			c1-6.4-4.7-6-8-7.9l0,0.1c3-0.4,6-0.8,9.4-1.2c-0.8-1.9-1.8-4.2-2.8-6.5c0.3-0.2,0.6-0.3,0.8-0.5c1.1,1.9,2.6,3.7,3.1,5.7
			c0.7,3,1.4,5.4,5,6c0.7,0.1,1.3,1.4,1.9,2.2c-1,0.5-1.9,1.2-2.9,1.6c-1.6,0.6-3.3,1.1-5,1.6c0.2,0.8,0.4,1.6,0.7,2.4
			c10.5-1.6,20.9-3.2,31.4-4.9c-1.3,0.8-2.6,1.9-4,2.3c-3.5,0.9-7,1.5-10.6,2.2c0.2,0.7,0.4,1.5,0.5,2.2c9.7-1.3,19.4-2.6,29.2-4
			c-0.1-0.9-0.1-1.8-0.2-2.7c-5,0-10,0-15,0c-0.4-1.2-0.8-2.4-1.2-3.6c1.2-0.3,2.6-1.3,3.4-0.9c1.4,0.7,2.4,2.2,4,3.7
			c5.8-0.5,12.4-1,18.9-1.5c-2.5,0.6-5.1,1.2-7.6,1.9c0.5,1.5,1.1,3,1.4,3.8c1.8-0.5,3.5-0.8,5.2-1.4C127.5,27.8,133.5,30,136.1,24z
			 M101.9,41c4-0.7,7.2-1.2,10.4-1.7c-0.1-0.4-0.2-0.9-0.3-1.3c-7.8,0.7-15.6,1.4-23.5,2.1c0,0.4,0.1,0.8,0.1,1.2
			c5.6,0.3,11.3,0.6,16.9,0.9c0-0.2,0-0.3,0.1-0.5C104.5,41.5,103.4,41.3,101.9,41z M65.2,34.4c0.1,0.7,0.2,1.3,0.3,2
			c4.5-0.7,9.1-1.4,13.6-2.1c-0.1-0.7-0.2-1.4-0.3-2C74.2,33,69.7,33.7,65.2,34.4z"/>
		<path id="XMLID_25_" d="M50.1,77.8c-2.1,0.7-4.6,0.9-6.1,2.2c-4.2,3.7-7.9,7.8-12.7,12.7c-0.6-3.7-0.7-6.5-1.4-9.1
			c-2.6-8.7-5.4-17.4-8.1-26.1c-1.9-6.1-3.8-12.2-5.5-18.3c-1.7-6.1,1.2-10.2,6.4-13.1l-0.1,0.1c10.1-2,20.2-4,30.4-5.9
			c1.5-0.3,3.1,0.3,4.6,0.4c0,0,0-0.1,0-0.1c-4.5,0.5-8.9,1.1-12.6,1.5c-4.4,6-8.5,11.6-12.6,17.2c-2.5-1.7-4.5-3-7.7-5.2
			c0.4,3.2,0.4,6.6,1,6.8c4.6,1,2.8,4.7,3.5,7.2c0.3,1.2,0.5,2.6,1.1,3.6c4.9,7.5,17.9,12.9,26.2,11c-0.1,0.8-0.2,1.6-0.2,2.4
			c-1,1-2.9,2-2.8,2.8c0.2,2.4,1.3,4.7,2,7c-0.2,0.8-0.5,1.5-0.7,2.3c-0.5-0.4-1.1-0.8-1.6-1.1c-0.7-3.4-1.4-6.9-2.1-10.3
			c-0.6,0.2-1.2,0.3-1.8,0.5c1.9,3-3.9,8.7,3.9,9.8C52.2,76.8,51.2,77.3,50.1,77.8z M37.4,72.2c4.6-4.7,4.7-4.9-0.7-10.1
			c-5.1-4.9-10.4-9.5-8.9-17.9C25.9,44,24.4,44,22,43.8C27.3,53.8,32.3,62.9,37.4,72.2z"/>
		<path id="XMLID_24_" d="M99.8,86.3c-0.3-2.1-0.7-4.3-0.7-6.4c0-3.7-1.6-4.8-4.7-4.1c1.1,10.8,2.1,21.4,3.2,32.1
			c-0.8,0.1-1.5,0.2-2.3,0.3c-0.7-6.5-1.5-12.9-2.3-19.7c-6.7,5.4-5.9,16.7-14.9,20c-0.5-0.4-1-0.7-1.5-1.1c2.7-5,5.6-9.9,8.2-15
			c2.2-4.4,4.1-8.8,5.8-13.4c0.3-0.7-1.2-2.7-2.2-3.1c-2.3-0.8-4.8-0.9-7.4-1.3c-0.2,0.7-0.6,1.6-1.1,3c-0.1-8.5,2.2-10.6,9.8-9
			c-0.4-1.5-0.7-2.7-1-4.2c0.5,0.1,1.1,0.1,1.5,0.4c1.8,1,3.8,4,4.9-0.9c0.1-0.6,4.9-1.3,5.7-0.4c3.5,4.2,7.9,2.4,12,2.9
			c1.4,0.1,2.8,0.3,3.8,0.5c0.4,3.8,2.3,8.3,0.9,10.2c-5.4,7.1-0.1,14-1.6,21c-1-5.2-1.9-10.5-2.9-15.7c-1.8-8.9-3.3-9.8-12.3-8.5
			c0,4,0,8,0,12C100.2,85.9,100,86.1,99.8,86.3z"/>
		<path id="XMLID_23_" d="M22.8,26.1c-1.6,0.4-3.3,0.9-5.2,1.4c-1.8-8.3,0.4-16.2,7.5-21.3c6.1-4.4,13.8-6,21.1-2.9
			c5.6,2.3,7.5,7.7,7.3,13.8c-1.2-2.3-2.5-4.5-4.5-8.2c-2.1,3.6-3.7,6.4-5.2,9.1c-0.6-3.2-1.3-6.8-2.2-11.7c-1.8,4.7-2.3,9-4.7,11.7
			c-2.4,2.6-6.7,3.5-10.1,5.1c-0.4-1.1-0.9-2.2-1-2.4c-0.8,1.4-1.9,3.5-3,5.6C22.6,26.2,22.8,26.1,22.8,26.1z"/>
		<path id="XMLID_22_" d="M100.4,85.8c0.9-1.3,2.2-2.6,2.5-4c0.3-1.7-0.5-3.5-0.9-5.5c4.1-1.1,6.6-2.2,6.9,4.1
			c0.3,7.5,2.7,15,4,22.5c0.3,1.7,0,3.5,0,5.3c-0.5,0.1-1,0.1-1.5,0.2c-2.6-7-5.1-14-7.7-21.1c-0.7,0.1-1.3,0.2-2,0.3
			c-0.3,3.2-0.6,6.3-1,9.5c-0.1,0-0.3,0-0.4,0c-0.2-3.6-0.4-7.1-0.5-10.7C100,86.1,100.2,85.9,100.4,85.8z"/>
		<path id="XMLID_21_" d="M1.2,57.6c1.8-1.4,4.1-3.2,6.3-5.1c0.1-0.1-1.5-2-2.5-3.3c4-1.2,8.4-2.5,13-3.8c-0.3,3.8-0.6,7.7-1.1,12.8
			c-1.9-3-3.4-5.2-5.1-7.8c-0.6,7.4-1.2,15.1-1.8,23.3c1.3,0.1,2.7,0.1,4.1,0.4c0.8,0.2,1.6,0.6,2,1.2c0.2,0.3-0.3,1.6-0.7,1.7
			c-0.7,0.2-1.6,0-2.4-0.2c-1.9-0.6-3.8-1.3-5.7-1.9C10.6,64.9,7.8,57.9,1.2,57.6z"/>
		<path id="XMLID_20_" d="M55.7,86c3,3.8,6.1,7.5,9.4,11.7c1-0.4,2.3-1,4-1.7c-1.7,4.3-3.2,8-4.5,11.5c-5-7.1-9.7-13.8-13.9-19.8
			c0.6-0.8,1.7-2.6,2.9-4.4C54.3,84.1,55,85,55.7,86z"/>
		<path id="XMLID_19_" d="M88.1,58.8c8.9-2.3,17.7-2,26.5,0.1c0,0.5,0,1.1,0,1.6c-5.5,0-11-0.1-16.5,0.1c-1.8,0.1-3.6,1.1-5.5,1.5
			C89.7,62.9,88,62,88.1,58.8C88.2,58.7,88.1,58.8,88.1,58.8z"/>
		<path id="XMLID_18_" d="M75.2,56.9c-8.8,5.7-11.3,15.5-15.6,24.2c-0.8,1.5-2.2,2.8-3.3,4.2c1-3.4,3.6-6.9-0.3-10.1
			c5.5,0.3,5.4-3,4.4-6.9c1.1-0.8,2.3-1.6,3.3-2.5c3.7-3,7.4-6.1,11.1-9.2L75.2,56.9z"/>
		<path id="XMLID_17_" class="st0" d="M136.1,24c-2.6,6-8.6,3.8-13,5.4c-1.7,0.6-3.4,0.9-5.2,1.4c-0.3-0.8-0.8-2.3-1.4-3.8
			c2.5-0.6,5.1-1.2,7.6-1.9C128.1,24.7,132.1,24.4,136.1,24z"/>
		<path id="XMLID_16_" class="st0" d="M56.1,75.1c3.9,3.3,1.3,6.7,0.3,10.1c-0.2,0.3-0.4,0.5-0.7,0.7c-0.7-0.9-1.4-1.9-2.2-2.8
			c-1.1-1.8-2.3-3.6-3.4-5.3c1-0.5,2.1-1,3.1-1.6l0,0c0.5,0.4,1.1,0.8,1.6,1.1c0.2-0.8,0.5-1.5,0.7-2.3
			C55.7,75.2,55.9,75.1,56.1,75.1z"/>
		<path id="XMLID_15_" d="M81.5,51.2c-0.5,4.9,4.3,5.2,6.6,7.7c0,0,0.1-0.1,0.1-0.1c-2.5-0.2-5-0.3-7.5-0.7
			c-1.8-0.2-3.7-0.8-5.5-1.2c0,0-0.3-0.3-0.3-0.3C77.2,54.8,79.4,53,81.5,51.2L81.5,51.2z"/>
		<path id="XMLID_12_" class="st0" d="M56.6,62.9c-8.4,1.8-21.3-3.5-26.2-11c-0.7-1-0.8-2.4-1.1-3.6c-0.7-2.6,1.1-6.2-3.5-7.2
			c-0.6-0.1-0.6-3.5-1-6.8c3.2,2.1,5.2,3.5,7.7,5.2c4.1-5.6,8.2-11.2,12.6-17.2c3.7-0.4,8.1-1,12.6-1.5c3.3,2,9,1.6,8,7.9
			c-0.2,1-0.3,2.2-0.9,2.8c-5.6,5.4-5.7,6-0.9,11.8c0.3,0.4,0.2,1,0.3,1.6c0,0,0.1-0.1,0.1-0.1c-0.9,1.1-1.9,2.2-2.1,2.5
			c-4-2-7.9-3.9-11.3-5.6c-2.4,2.2-4.9,4.4-7.4,6.7c3,0.9,5.6,0.8,8.1,0.4c4.5-0.8,7.4,0.6,8.2,5.2C58.7,56.8,57.6,59.9,56.6,62.9z
			 M48.8,33.6c2.9,0.5,5.1,0.9,6.8,1.2c1-1.8,1.8-3.1,2.6-4.6c-4.4-1.8-8.3-3.6-12.3,1c2.4,0,4.4,0,7.9,0
			C51.5,32.3,50.4,32.8,48.8,33.6z"/>
		<path id="XMLID_11_" class="st0" d="M56.6,62.9c1-3,2.1-6.1,3.1-9.1c1.5-3.1,3-6.1,4.5-9.2c0,0-0.1,0.1-0.1,0.1
			c3.2-4.5,8.3-1.9,12.5-2.9c0.5-0.1,1.8,3,2.7,4.6c0.8,1.6,1.6,3.2,2.4,4.8c-2.2,1.8-4.5,3.5-6.7,5.3c-3.7,3.1-7.4,6.1-11.1,9.2
			c-1.1,0.9-2.2,1.7-3.3,2.5c-1.4-1-2.8-2-4.2-3C56.4,64.5,56.5,63.7,56.6,62.9z"/>
		<path id="XMLID_10_" class="st0" d="M99,27.3c5,0,10,0,15,0c0.1,0.9,0.1,1.8,0.2,2.7c-9.7,1.3-19.4,2.6-29.2,4
			c-0.2-0.7-0.4-1.5-0.5-2.2C88,31,91.5,30.5,95,29.5C96.5,29.2,97.7,28,99,27.3C99,27.2,99,27.3,99,27.3z"/>
		<path id="XMLID_9_" class="st0" d="M101.9,41c1.5,0.3,2.6,0.5,3.8,0.7c0,0.2,0,0.3-0.1,0.5c-5.6-0.3-11.3-0.6-16.9-0.9
			c0-0.4-0.1-0.8-0.1-1.2c7.8-0.7,15.6-1.4,23.5-2.1c0.1,0.4,0.2,0.9,0.3,1.3C109.1,39.8,105.9,40.4,101.9,41z"/>
		<path id="XMLID_8_" class="st0" d="M65.2,34.4c4.5-0.7,9.1-1.4,13.6-2.2c0.1,0.7,0.2,1.4,0.3,2c-4.5,0.7-9.1,1.4-13.6,2.1
			C65.4,35.8,65.3,35.1,65.2,34.4z"/>
		<path id="XMLID_7_" class="st0" d="M37.4,72.2c-5-9.3-10-18.4-15.4-28.4c2.5,0.1,4,0.2,5.8,0.3c-1.5,8.4,3.9,13,8.9,17.9
			C42.1,67.3,41.9,67.5,37.4,72.2z"/>
		<path id="XMLID_6_" class="st0" d="M56.4,65.3c1.4,1,2.8,2,4.2,3c0.9,3.9,1.1,7.2-4.4,6.9c-0.2,0-0.4,0-0.6,0
			c-0.7-2.3-1.8-4.6-2-7C53.5,67.3,55.4,66.3,56.4,65.3z"/>
		<path id="XMLID_5_" class="st0" d="M53.2,76.3c-7.8-1-2-6.7-3.9-9.8c0.6-0.2,1.2-0.3,1.8-0.5C51.8,69.4,52.5,72.9,53.2,76.3
			C53.2,76.3,53.2,76.3,53.2,76.3z"/>
		<path id="XMLID_4_" d="M64.2,44.6c-1.5,3.1-3,6.1-4.5,9.2c-0.9-4.7-3.8-6-8.2-5.2C49,49,46.4,49,43.4,48.2c2.5-2.2,5-4.5,7.4-6.7
			c3.4,1.7,7.2,3.6,11.3,5.6C62.3,46.8,63.2,45.7,64.2,44.6z"/>
		<path id="XMLID_3_" d="M48.8,33.6c1.6-0.8,2.6-1.3,5-2.4c-3.5,0-5.5,0-7.9,0c4-4.6,8-2.8,12.3-1c-0.8,1.5-1.6,2.8-2.6,4.6
			C53.9,34.4,51.7,34.1,48.8,33.6z"/>
	</g>
</g>
</svg>
