<?xml version="1.0" encoding="utf-8"?>
<!-- Generator: Adobe Illustrator 19.0.0, SVG Export Plug-In . SVG Version: 6.00 Build 0)  -->
<svg version="1.1" id="Layer_1" xmlns="http://www.w3.org/2000/svg" xmlns:xlink="http://www.w3.org/1999/xlink" x="0px" y="0px"
	 viewBox="0 0 100 100" style="enable-background:new 0 0 100 100;" xml:space="preserve">
<style type="text/css">
	.st0{fill:#FFFFFF;}
</style>
<g id="XMLID_2_" transform="translate(0,-952.36218)">
	<path id="XMLID_3_" class="st0" d="M50,957.5c-24.3,0-44,19.7-44,44c0,24.3,19.7,44,44,44c1.1,0,2-0.9,2-2c0-1.1-0.9-2-2-2
		c0,0,0,0-0.1,0c-22.1,0-40-17.9-40-40c0-22.1,17.9-40,40-40s40,17.9,40,40c0,13.3-5.7,24.5-16.5,31.9c-3.6-0.2-7-2-8.9-5.9
		c1.1-0.5,2.1-1.1,3.3-1.7c0,0,0,0,0,0c1.3-0.7,2.4-1.8,3.3-3.2c0.8-1.3,1.3-3.3,0.3-5c-1.7-2.9-5.2-7.2-7.3-9
		c-1.5-1.4-3.6-1.1-5-0.7c-1.4,0.5-2.5,1.2-3.2,1.6c-1.1,0.6-1.9,1.1-2.4,1.4c-0.6,0.3-0.7,0.2-0.8,0.2c-0.1,0-0.4-0.1-1.1-0.9
		c-0.6-0.7-1.5-2-2.6-3.9l-3.3-5.7c0-0.1-0.1-0.1-0.1-0.2c-1-1.8-1.7-3.2-2-4.1c-0.3-0.9-0.3-1.3-0.3-1.4c0-0.1,0.1-0.2,0.6-0.6
		c0.5-0.4,1.4-0.8,2.4-1.4c0.7-0.4,1.9-1,3-2c1.1-0.9,2.3-2.6,1.9-4.6c-0.5-2.7-2.5-7.8-4.2-10.8c-1-1.7-2.9-2.2-4.5-2.2
		s-3.1,0.5-4.4,1.2c0,0,0,0,0,0c-5.8,3.3-9.6,7-10.3,12.1s1.6,10.9,6.2,18.9l4.6,7.9c4.7,8.1,8.5,12.9,13.3,14.9
		c2.7,1.1,5.6,1.1,8.6,0.3c2.6,5.6,7.9,8.6,13.2,8.6c0.4,0,0.8-0.1,1.1-0.3c12.3-8.1,18.9-21,18.9-35.7
		C94,977.2,74.3,957.5,50,957.5z M42.8,977.5c0.8,0,0.9,0.1,0.9,0.2c1.2,2.2,3.4,8,3.7,9.6c0,0.1,0,0.2-0.6,0.8
		c-0.6,0.5-1.6,1.1-2.5,1.6c-0.9,0.6-1.8,1-2.6,1.6c-0.8,0.6-1.7,1.4-2.1,2.6c-0.4,1.2-0.2,2.5,0.2,3.9c0.4,1.3,1.2,2.8,2.3,4.6
		c0,0.1,0.1,0.3,0.2,0.4l3.3,5.7c1.2,2,2.1,3.5,3.1,4.6c1,1.1,2,1.9,3.3,2.1c1.2,0.3,2.4-0.1,3.3-0.5c0.9-0.4,1.7-1,2.7-1.5
		c0.9-0.5,1.9-1.1,2.6-1.3c0.8-0.3,0.9-0.3,1-0.2c1.2,1.1,5.2,5.9,6.5,8c0,0.1,0.1,0.3-0.3,0.9c-0.4,0.6-1.2,1.4-1.9,1.8
		c-5.4,3.1-8.8,3.9-12.1,2.6s-6.9-5.4-11.4-13.2l-4.6-7.9c-4.5-7.8-6.2-12.9-5.8-16.4c0.5-3.5,2.9-6.1,8.3-9.2
		C41,977.8,42.1,977.5,42.8,977.5z"/>
</g>
</svg>
